%FSLAX25Y25*%
%MOIN*%
G70*
G01*
G75*
G04 Layer_Physical_Order=1*
G04 Layer_Color=255*
%ADD10R,0.09449X0.12205*%
%ADD11R,0.08661X0.01969*%
G04:AMPARAMS|DCode=12|XSize=39.37mil|YSize=35.43mil|CornerRadius=4.43mil|HoleSize=0mil|Usage=FLASHONLY|Rotation=0.000|XOffset=0mil|YOffset=0mil|HoleType=Round|Shape=RoundedRectangle|*
%AMROUNDEDRECTD12*
21,1,0.03937,0.02658,0,0,0.0*
21,1,0.03051,0.03543,0,0,0.0*
1,1,0.00886,0.01526,-0.01329*
1,1,0.00886,-0.01526,-0.01329*
1,1,0.00886,-0.01526,0.01329*
1,1,0.00886,0.01526,0.01329*
%
%ADD12ROUNDEDRECTD12*%
G04:AMPARAMS|DCode=13|XSize=106.3mil|YSize=51.18mil|CornerRadius=6.4mil|HoleSize=0mil|Usage=FLASHONLY|Rotation=90.000|XOffset=0mil|YOffset=0mil|HoleType=Round|Shape=RoundedRectangle|*
%AMROUNDEDRECTD13*
21,1,0.10630,0.03839,0,0,90.0*
21,1,0.09350,0.05118,0,0,90.0*
1,1,0.01280,0.01919,0.04675*
1,1,0.01280,0.01919,-0.04675*
1,1,0.01280,-0.01919,-0.04675*
1,1,0.01280,-0.01919,0.04675*
%
%ADD13ROUNDEDRECTD13*%
G04:AMPARAMS|DCode=14|XSize=90.55mil|YSize=70.87mil|CornerRadius=8.86mil|HoleSize=0mil|Usage=FLASHONLY|Rotation=0.000|XOffset=0mil|YOffset=0mil|HoleType=Round|Shape=RoundedRectangle|*
%AMROUNDEDRECTD14*
21,1,0.09055,0.05315,0,0,0.0*
21,1,0.07284,0.07087,0,0,0.0*
1,1,0.01772,0.03642,-0.02658*
1,1,0.01772,-0.03642,-0.02658*
1,1,0.01772,-0.03642,0.02658*
1,1,0.01772,0.03642,0.02658*
%
%ADD14ROUNDEDRECTD14*%
G04:AMPARAMS|DCode=15|XSize=224.41mil|YSize=78.74mil|CornerRadius=9.84mil|HoleSize=0mil|Usage=FLASHONLY|Rotation=0.000|XOffset=0mil|YOffset=0mil|HoleType=Round|Shape=RoundedRectangle|*
%AMROUNDEDRECTD15*
21,1,0.22441,0.05906,0,0,0.0*
21,1,0.20472,0.07874,0,0,0.0*
1,1,0.01969,0.10236,-0.02953*
1,1,0.01969,-0.10236,-0.02953*
1,1,0.01969,-0.10236,0.02953*
1,1,0.01969,0.10236,0.02953*
%
%ADD15ROUNDEDRECTD15*%
%ADD16C,0.02000*%
%ADD17C,0.03543*%
%ADD18C,0.02756*%
%ADD19C,0.01500*%
%ADD20C,0.01800*%
%ADD21C,0.04000*%
G04:AMPARAMS|DCode=22|XSize=100mil|YSize=100mil|CornerRadius=12.5mil|HoleSize=0mil|Usage=FLASHONLY|Rotation=270.000|XOffset=0mil|YOffset=0mil|HoleType=Round|Shape=RoundedRectangle|*
%AMROUNDEDRECTD22*
21,1,0.10000,0.07500,0,0,270.0*
21,1,0.07500,0.10000,0,0,270.0*
1,1,0.02500,-0.03750,-0.03750*
1,1,0.02500,-0.03750,0.03750*
1,1,0.02500,0.03750,0.03750*
1,1,0.02500,0.03750,-0.03750*
%
%ADD22ROUNDEDRECTD22*%
%ADD23C,0.10000*%
%ADD24C,0.03150*%
%ADD25C,0.02362*%
G36*
X525041Y116541D02*
X525500Y116351D01*
X552709D01*
Y112606D01*
X562709D01*
Y116351D01*
X566138D01*
Y114925D01*
X570862D01*
Y116351D01*
X575731D01*
X577041Y115041D01*
X577541Y114541D01*
X584852Y107230D01*
X584644Y106730D01*
X491730D01*
Y118280D01*
X492192Y118471D01*
X493147Y117516D01*
X493606Y117326D01*
X503570D01*
X503871Y117201D01*
X504330Y117391D01*
X507789Y120851D01*
X509541D01*
X509617Y120627D01*
X509669Y120351D01*
X509224Y119770D01*
X508925Y119049D01*
X508823Y118276D01*
X508925Y117502D01*
X509224Y116782D01*
X509698Y116163D01*
X510317Y115688D01*
X511038Y115390D01*
X511811Y115288D01*
X512584Y115390D01*
X513305Y115688D01*
X513924Y116163D01*
X514398Y116782D01*
X514697Y117502D01*
X514799Y118276D01*
X514697Y119049D01*
X514398Y119770D01*
X513953Y120351D01*
X514005Y120627D01*
X514081Y120851D01*
X520731D01*
X525041Y116541D01*
D02*
G37*
G36*
X642500Y178500D02*
X642500Y117500D01*
X632500Y107500D01*
X585500D01*
X578000Y115000D01*
X577500Y115500D01*
D01*
X576000Y117000D01*
X525500D01*
X521000Y121500D01*
X507520D01*
X503871Y117851D01*
X503746Y117975D01*
X493606D01*
X491851Y119731D01*
Y144579D01*
X493199Y145928D01*
X504072Y145928D01*
X521000Y129000D01*
X567000D01*
X567500Y129500D01*
X567500Y131000D01*
X572000Y131000D01*
Y132500D01*
X576000D01*
X585000Y123500D01*
X594000Y114500D01*
X622000D01*
X627000Y119500D01*
Y147000D01*
X618500Y155500D01*
Y177000D01*
X623000Y181500D01*
X639500D01*
X642500Y178500D01*
D02*
G37*
G36*
X673270Y106730D02*
X633356D01*
X633148Y107230D01*
X642959Y117041D01*
X643149Y117500D01*
X643149Y165169D01*
X643323Y165429D01*
X643446Y166047D01*
Y171953D01*
X643323Y172571D01*
X643149Y172831D01*
Y178500D01*
X642959Y178959D01*
X639959Y181959D01*
X639500Y182149D01*
X623000D01*
X622541Y181959D01*
X618041Y177459D01*
X617851Y177000D01*
Y155500D01*
X618041Y155041D01*
X626351Y146731D01*
Y119769D01*
X621731Y115149D01*
X594269D01*
X585459Y123959D01*
X576569Y132850D01*
Y133084D01*
X576157D01*
X576000Y133149D01*
X572000D01*
X571843Y133084D01*
X566707D01*
Y129916D01*
X566707D01*
X566317Y129649D01*
X554320D01*
X553931Y129916D01*
X553931Y130149D01*
Y133084D01*
X549237D01*
X549000Y133131D01*
X534676D01*
X532654Y135153D01*
X532124Y135507D01*
X531500Y135631D01*
X530473D01*
X529849Y136049D01*
X529000Y136217D01*
X528151Y136049D01*
X527527Y135631D01*
X520676D01*
X515729Y140578D01*
X515777Y141073D01*
X516008Y141418D01*
X516089Y141825D01*
Y144482D01*
X516008Y144889D01*
X515862Y145107D01*
Y147893D01*
X516008Y148111D01*
X516089Y148518D01*
Y151175D01*
X516008Y151582D01*
X515777Y151927D01*
X515433Y152158D01*
X515026Y152239D01*
X511974D01*
X511567Y152158D01*
X511223Y151927D01*
X510992Y151582D01*
X510971Y151478D01*
X509955D01*
X509849Y151549D01*
X509000Y151717D01*
X508151Y151549D01*
X507432Y151068D01*
X506951Y150349D01*
X506783Y149500D01*
X506951Y148651D01*
X507432Y147932D01*
X508151Y147451D01*
X509000Y147283D01*
X509849Y147451D01*
X510560Y147926D01*
X510572Y147932D01*
X511138Y147893D01*
Y145107D01*
X510992Y144889D01*
X510911Y144482D01*
Y141825D01*
X510992Y141418D01*
X511223Y141073D01*
X511567Y140842D01*
X511869Y140782D01*
Y140500D01*
X511993Y139876D01*
X512347Y139347D01*
X518847Y132846D01*
X519376Y132493D01*
X520000Y132369D01*
X527527D01*
X528151Y131951D01*
X529000Y131783D01*
X529849Y131951D01*
X530473Y132369D01*
X530824D01*
X532846Y130347D01*
X533141Y130149D01*
X532990Y129649D01*
X521269D01*
X504531Y146387D01*
X504072Y146577D01*
X493199Y146577D01*
X492740Y146387D01*
X492192Y145839D01*
X491730Y146030D01*
Y198270D01*
X673270D01*
Y106730D01*
D02*
G37*
%LPC*%
G36*
X658169Y121263D02*
X657396Y121161D01*
X656675Y120863D01*
X656057Y120388D01*
X655582Y119770D01*
X655283Y119049D01*
X655182Y118276D01*
X655283Y117502D01*
X655582Y116782D01*
X656057Y116163D01*
X656675Y115688D01*
X657396Y115390D01*
X658169Y115288D01*
X658943Y115390D01*
X659663Y115688D01*
X660282Y116163D01*
X660757Y116782D01*
X661055Y117502D01*
X661157Y118276D01*
X661055Y119049D01*
X660757Y119770D01*
X660282Y120388D01*
X659663Y120863D01*
X658943Y121161D01*
X658169Y121263D01*
D02*
G37*
G36*
X594500Y149123D02*
X594500Y149122D01*
X578000D01*
X577321Y149033D01*
X576689Y148771D01*
X576146Y148354D01*
X575938Y148084D01*
X566707D01*
Y144916D01*
X575938D01*
X576146Y144646D01*
X576689Y144229D01*
X576853Y144161D01*
X576884Y143607D01*
X576290Y143210D01*
X576206Y143084D01*
X566707D01*
Y139916D01*
X576206D01*
X576290Y139790D01*
X577075Y139266D01*
X577076Y139266D01*
X577158Y138905D01*
X577150Y138741D01*
X576646Y138354D01*
X576438Y138084D01*
X566707D01*
Y134916D01*
X576438D01*
X576646Y134646D01*
X577189Y134229D01*
X577821Y133967D01*
X578500Y133878D01*
X585414D01*
X595864Y123427D01*
Y117750D01*
X596007Y117028D01*
X596416Y116416D01*
X597028Y116007D01*
X597750Y115864D01*
X605250D01*
X605972Y116007D01*
X606584Y116416D01*
X606993Y117028D01*
X607136Y117750D01*
Y125250D01*
X606993Y125972D01*
X606584Y126584D01*
X605972Y126993D01*
X605250Y127136D01*
X599573D01*
X588354Y138354D01*
X587811Y138771D01*
X587179Y139033D01*
X586500Y139122D01*
X586500Y139122D01*
X582611D01*
X582459Y139622D01*
X582710Y139790D01*
X583234Y140575D01*
X583418Y141500D01*
X583234Y142425D01*
X582710Y143210D01*
X582459Y143378D01*
X582611Y143878D01*
X593414D01*
X612198Y125093D01*
X611608Y124324D01*
X611044Y122962D01*
X610852Y121500D01*
X611044Y120038D01*
X611608Y118676D01*
X612506Y117506D01*
X613676Y116608D01*
X615038Y116044D01*
X616500Y115852D01*
X617962Y116044D01*
X619324Y116608D01*
X620494Y117506D01*
X621392Y118676D01*
X621956Y120038D01*
X622148Y121500D01*
X621956Y122962D01*
X621392Y124324D01*
X620494Y125494D01*
X619324Y126392D01*
X617962Y126956D01*
X617721Y126988D01*
X596354Y148354D01*
X595811Y148771D01*
X595179Y149033D01*
X594500Y149123D01*
D02*
G37*
G36*
X511811Y180712D02*
X511038Y180610D01*
X510317Y180312D01*
X509698Y179837D01*
X509224Y179218D01*
X508925Y178498D01*
X508823Y177724D01*
X508925Y176951D01*
X509224Y176231D01*
X509698Y175612D01*
X510317Y175137D01*
X511038Y174838D01*
X511811Y174737D01*
X512584Y174838D01*
X513305Y175137D01*
X513924Y175612D01*
X514398Y176231D01*
X514697Y176951D01*
X514799Y177724D01*
X514697Y178498D01*
X514398Y179218D01*
X513924Y179837D01*
X513305Y180312D01*
X512584Y180610D01*
X511811Y180712D01*
D02*
G37*
G36*
X658169D02*
X657396Y180610D01*
X656675Y180312D01*
X656057Y179837D01*
X655582Y179218D01*
X655283Y178498D01*
X655182Y177724D01*
X655283Y176951D01*
X655582Y176231D01*
X656057Y175612D01*
X656675Y175137D01*
X657396Y174838D01*
X658169Y174737D01*
X658943Y174838D01*
X659663Y175137D01*
X660282Y175612D01*
X660757Y176231D01*
X661055Y176951D01*
X661157Y177724D01*
X661055Y178498D01*
X660757Y179218D01*
X660282Y179837D01*
X659663Y180312D01*
X658943Y180610D01*
X658169Y180712D01*
D02*
G37*
G36*
X529500Y144217D02*
X528651Y144049D01*
X527932Y143568D01*
X527451Y142849D01*
X527283Y142000D01*
X527451Y141151D01*
X527932Y140432D01*
X528651Y139951D01*
X529500Y139783D01*
X530349Y139951D01*
X530866Y140297D01*
X531135Y140234D01*
X531268Y139749D01*
X531252Y139692D01*
X530794Y139006D01*
X530625Y138157D01*
X530794Y137309D01*
X531275Y136590D01*
X531994Y136109D01*
X532731Y135962D01*
X533347Y135346D01*
X533876Y134993D01*
X534500Y134869D01*
X549000D01*
X549237Y134916D01*
X553931D01*
Y138084D01*
X549237D01*
X549000Y138131D01*
X535176D01*
X535038Y138269D01*
X534891Y139006D01*
X534649Y139369D01*
X534916Y139869D01*
X549000D01*
X549237Y139916D01*
X553931D01*
Y143084D01*
X549237D01*
X549000Y143131D01*
X534176D01*
X534154Y143154D01*
X533624Y143507D01*
X533000Y143631D01*
X530973D01*
X530349Y144049D01*
X529500Y144217D01*
D02*
G37*
G36*
X579500Y169418D02*
X578575Y169234D01*
X577790Y168710D01*
X577266Y167925D01*
X577082Y167000D01*
Y164500D01*
X577266Y163575D01*
X577790Y162790D01*
X578906Y161674D01*
X578896Y161569D01*
X578621Y161159D01*
X578525Y160675D01*
Y151325D01*
X578621Y150841D01*
X578896Y150431D01*
X579306Y150157D01*
X579789Y150061D01*
X583628D01*
X584112Y150157D01*
X584522Y150431D01*
X584796Y150841D01*
X584892Y151325D01*
Y160675D01*
X584796Y161159D01*
X584522Y161569D01*
X584127Y161833D01*
Y162291D01*
X583943Y163217D01*
X583419Y164001D01*
X581918Y165502D01*
Y167000D01*
X581734Y167925D01*
X581210Y168710D01*
X580425Y169234D01*
X579500Y169418D01*
D02*
G37*
%LPD*%
D10*
X560319Y139000D02*
D03*
D11*
X571638Y146500D02*
D03*
Y141500D02*
D03*
Y136500D02*
D03*
Y131500D02*
D03*
X549000D02*
D03*
Y136500D02*
D03*
Y141500D02*
D03*
Y146500D02*
D03*
D12*
X568500Y113154D02*
D03*
Y119846D02*
D03*
X513500Y143154D02*
D03*
Y149846D02*
D03*
D13*
X581709Y156000D02*
D03*
X570291D02*
D03*
D14*
X552500Y121709D02*
D03*
Y110291D02*
D03*
D15*
X593405Y169000D02*
D03*
X631595D02*
D03*
D16*
X533500Y141500D02*
X549000D01*
X533000Y142000D02*
X533500Y141500D01*
X529500Y142000D02*
X533000D01*
X509000Y149500D02*
X509346Y149846D01*
X513500D01*
Y140500D02*
Y143154D01*
Y140500D02*
X520000Y134000D01*
X529000D01*
X532842Y138157D02*
X534500Y136500D01*
X549000D01*
X534000Y131500D02*
X549000D01*
X531500Y134000D02*
X534000Y131500D01*
X529000Y134000D02*
X531500D01*
D17*
X579500Y164500D02*
X581709Y162291D01*
X579500Y164500D02*
Y167000D01*
X578000Y141500D02*
X581000D01*
X581709Y156000D02*
Y162291D01*
D18*
X577500Y141500D02*
X578000D01*
D19*
X571638D02*
X577500D01*
D20*
X536000Y146500D02*
X549000D01*
X571638D02*
X578000D01*
X571638Y136500D02*
X578500D01*
D21*
X562878Y144118D02*
Y150878D01*
X594500Y146500D02*
X616500Y124500D01*
Y121500D02*
Y124500D01*
X578000Y146500D02*
X594500D01*
X586500Y136500D02*
X601500Y121500D01*
X578500Y136500D02*
X586500D01*
D22*
X601500Y121500D02*
D03*
D23*
X616500D02*
D03*
D24*
X535870Y111500D02*
D03*
X527996D02*
D03*
X520122D02*
D03*
X503500D02*
D03*
X496500D02*
D03*
X579500Y167000D02*
D03*
X581000Y141500D02*
D03*
X509000Y149500D02*
D03*
X536000Y146500D02*
D03*
X529500Y142000D02*
D03*
X532842Y138157D02*
D03*
X529000Y134000D02*
D03*
X495500Y120500D02*
D03*
Y125000D02*
D03*
Y130000D02*
D03*
Y134500D02*
D03*
Y139000D02*
D03*
Y143500D02*
D03*
D25*
X557760Y144118D02*
D03*
Y139000D02*
D03*
Y133882D02*
D03*
X562878D02*
D03*
Y139000D02*
D03*
Y144118D02*
D03*
M02*
