M48
;Layer_Color=9474304
;FILE_FORMAT=2:5
INCH,LZ
;TYPE=PLATED
T1F00S00C0.01181
T2F00S00C0.01575
T3F00S00C0.04724
T4F00S00C0.05200
%
T01
X055776Y0133882
X0562878
Y0139
Y0144118
X055776
Y0139
T02
X04955Y01205
Y0125
Y013
Y01345
Y0139
Y01435
X0509Y01495
X05295Y0142
X0532842Y0138157
X0529Y0134
X0536Y01465
X0581Y01415
X05795Y0167
T03
X0511811Y0118276
X0658169
Y0177724
X0511811
T04
X06015Y01215
X06165
M30
